<?xml version="1.0" encoding="UTF-8" standalone="no"?> <!-- Created with Vectornator for iOS (http://vectornator.io/) --><!DOCTYPE svg PUBLIC "-//W3C//DTD SVG 1.1//EN" "http://www.w3.org/Graphics/SVG/1.1/DTD/svg11.dtd">
<svg height="100%" style="fill-rule:evenodd;clip-rule:evenodd;stroke-linecap:round;stroke-linejoin:round;" xmlns:xlink="http://www.w3.org/1999/xlink" xmlns="http://www.w3.org/2000/svg" xml:space="preserve" width="100%" xmlns:vectornator="http://vectornator.io" version="1.1" viewBox="0 0 512 120">
<metadata>
<vectornator:setting key="DimensionsVisible" value="0"/>
<vectornator:setting key="PencilOnly" value="0"/>
<vectornator:setting key="SnapToPoints" value="0"/>
<vectornator:setting key="OutlineMode" value="0"/>
<vectornator:setting key="CMYKEnabledKey" value="0"/>
<vectornator:setting key="RulersVisible" value="1"/>
<vectornator:setting key="SnapToEdges" value="0"/>
<vectornator:setting key="GuidesVisible" value="0"/>
<vectornator:setting key="DisplayWhiteBackground" value="0"/>
<vectornator:setting key="doHistoryDisabled" value="0"/>
<vectornator:setting key="SnapToGuides" value="1"/>
<vectornator:setting key="TimeLapseWatermarkDisabled" value="0"/>
<vectornator:setting key="Units" value="Points"/>
<vectornator:setting key="DynamicGuides" value="1"/>
<vectornator:setting key="IsolateActiveLayer" value="0"/>
<vectornator:setting key="SnapToGrid" value="0"/>
</metadata>
<defs>
<linearGradient y1="223.447" id="LinearGradient" x1="165.903" y2="273.76" x2="370.992" gradientUnits="userSpaceOnUse" gradientTransform="matrix(3.2099 0 0 3.2099 -604.364 -740.845)">
<stop stop-color="#19fce8" offset="0.00485437"/>
<stop stop-color="#465bd9" offset="0.713592"/>
<stop stop-color="#ba2bd5" offset="0.987864"/>
</linearGradient>
</defs>
<g id="圖層1" vectornator:layerName="圖層1">
<path d="M212.942+0.921606C208.904+2.84323+208.883+10.8403+208.883+10.8403L209.246+103.66C209.246+106.655+210.829+117.305+216.648+117.762C222.465+118.219+229.315+118.695+232.502+118.498C239.921+118.04+239.839+104.702+239.839+104.702L239.839+12.1783C239.839+9.18152+240.28+1.97059+235.326+0.541604C235.143+0.489263+216.7-0.866913+212.942+0.921606ZM56.2735+4.25287C48.4842+4.25287+41.1365+5.54874+34.3058+8.06541C27.4752+10.5809+21.5437+14.2865+16.4508+19.1992C11.3576+24.1131+7.34963+30.1249+4.4136+37.255C1.47757+44.3852+0+52.6838+0+62.0314C0.000112843+72.098+1.55846+80.7618+4.61418+88.0115C7.67001+95.2611+11.7798+101.233+17.0525+105.967C22.3255+110.7+28.5395+114.222+35.6098+116.499C42.6801+118.777+50.2507+119.91+58.2797+119.91C69.4244+119.91+77.7039+118.209+83.1567+114.794C88.6087+111.379+91.0458+109.023+91.9616+105.961C92.8001+103.156+94.055+97.904+89.6532+93.0857C85.2524+88.2686+78.4468+91.2073+75.0314+92.526C71.6162+93.8435+67.5063+94.5318+62.593+94.5318C53.3658+94.5318+45.9775+91.7375+40.5249+86.1057C35.0724+80.4729+32.3999+72.4576+32.3999+62.0314C32.3998+51.7258+34.8092+43.69+39.7225+38.0571C44.6359+32.4254+51.7607+29.6311+60.988+29.6311C65.6618+29.6311+69.6907+30.4002+73.2258+31.8383C76.7609+33.2764+81.2158+35.5189+83.853+34.8578C86.4903+34.1957+88.1502+33.0215+89.5041+30.6175C90.9695+28.0144+91.9025+25.8345+91.568+22.8286C90.9445+17.231+87.9045+13.2648+81.8529+9.66961C75.8006+6.07438+67.2985+4.25287+56.2735+4.25287ZM475.667+26.4216C469.795+26.4216+464.37+27.1099+459.517+28.4274C454.663+29.746+450.554+31.5482+447.079+33.9454C443.603+36.3414+440.871+39.378+438.954+42.9733C437.036+46.5673+436.144+50.5756+436.144+55.0093C436.144+63.1589+438.676+69.3936+443.768+73.7682C448.862+78.1416+456.615+81.3603+467.041+83.3968L472.457+84.5004C475.813+85.1+478.14+85.8486+479.578+86.8077C481.017+87.7669+481.786+89.0423+481.786+90.7204C481.786+92.518+480.754+93.955+478.776+95.0335C476.799+96.1121+473.965+96.739+470.25+96.739C464.378+96.739+459.196+95.9289+454.702+94.4317C452.829+93.8071+451.046+93.1472+449.353+92.4509C446.986+91.4781+444.857+90.2653+442.807+90.8046C440.756+91.3439+439.651+92.2529+438.452+94.2303C437.254+96.2088+436.646+98.6777+436.646+101.554C436.646+104.669+437.517+107.402+439.255+109.678C440.992+111.955+443.421+113.798+446.477+115.295C449.532+116.794+453.197+117.887+457.511+118.606C461.825+119.325+466.521+119.71+471.554+119.71C484.856+119.71+494.916+117.138+501.747+111.986C508.577+106.833+511.979+99.7267+511.979+90.6191C511.979+83.3092+509.51+77.2781+504.656+72.6646C499.803+68.05+491.685+64.4673+480.18+61.8311L474.563+60.5273C471.208+59.8083+468.941+59.0585+467.743+58.22C466.543+57.3803+465.937+56.3279+465.937+55.0093C465.937+53.0922+466.989+51.6951+469.147+50.7963C471.304+49.8986+474.42+49.3923+478.375+49.3923C480.293+49.3923+482.358+49.6347+484.695+49.9942C487.032+50.3537+489.339+50.7588+491.616+51.298C493.892+51.8373+496.018+52.4449+497.936+53.1036C499.853+53.7635+501.234+54.2573+503.004+53.7953C504.776+53.3346+507.984+50.4129+508.634+44.2509C508.935+41.3907+506.835+37.5463+505.158+35.4494C503.48+33.3526+501.212+31.6517+498.336+30.3342C495.46+29.0156+492+28.0838+488.105+27.425C484.21+26.7652+480.101+26.4216+475.667+26.4216ZM146.652+26.6218C86.1+26.5513+84.3775+119.338+146.652+119.508C209.264+119.68+207.208+26.6935+146.652+26.6218ZM302.333+26.6218C241.78+26.5513+240.058+119.338+302.333+119.508C364.944+119.68+362.888+26.6935+302.333+26.6218ZM406.955+26.7231C403.479+26.7231+399.998+27.086+396.523+27.6253C393.047+28.1646+389.727+28.8734+386.492+29.8325C383.256+30.7904+380.28+31.8838+377.464+33.1421C374.648+34.4005+372.26+35.7976+370.342+37.3551C368.424+38.9138+366.947+40.6944+365.928+42.6718C364.91+44.6491+364.424+47.0372+364.424+49.794L364.424+103.66C364.424+106.655+365.215+113.344+368.283+115.63C371.571+118.077+371.312+118.175+380.577+118.085C389.577+117.999+389.499+117.681+391.37+116.287C395.144+113.478+394.648+103.973+394.648+103.973L394.883+61.4204C394.883+61.4204+394.796+57.6318+396.353+55.7181C397.912+53.8056+398.418+53.8443+400.636+53.305C402.852+52.7657+405.14+52.2788+407.657+51.7998C410.173+51.3208+412.845+50.9362+415.481+50.6962C418.117+50.4572+420.906+50.3184+422.461+49.3207C424.015+48.3229+424.532+47.4992+425.011+45.8813C425.49+44.2634+425.713+42.6445+425.713+40.9663C425.713+35.933+423.953+32.3503+420.597+30.1328C417.242+27.9165+412.707+26.7231+406.955+26.7231ZM146.652+50.4959C151.686+50.4959+155.632+52.4187+158.388+56.3143C161.145+60.2087+162.501+65.7745+162.501+72.965C162.501+80.1554+161.185+85.7622+158.489+89.7169C155.793+93.6717+151.886+95.6354+146.853+95.6354C141.819+95.6354+137.933+93.7115+135.117+89.817C132.301+85.9226+130.904+80.2749+130.904+72.965C130.904+65.7745+132.26+60.2087+135.017+56.3143C137.772+52.4187+141.619+50.4959+146.652+50.4959ZM302.333+50.4959C307.366+50.4959+311.313+52.4187+314.068+56.3143C316.825+60.2087+318.181+65.7745+318.181+72.965C318.181+80.1554+316.865+85.7622+314.168+89.7169C311.473+93.6717+307.566+95.6354+302.533+95.6354C297.499+95.6354+293.613+93.7115+290.797+89.817C287.98+85.9226+286.584+80.2749+286.584+72.965C286.584+65.7745+287.94+60.2087+290.696+56.3143C293.453+52.4187+297.299+50.4959+302.333+50.4959Z" fill-rule="evenodd" fill="url(#LinearGradient)" opacity="1"/>
</g>
</svg>
