<?xml version="1.0" encoding="UTF-8" standalone="no"?> <!-- Created with Vectornator for iOS (http://vectornator.io/) --><!DOCTYPE svg PUBLIC "-//W3C//DTD SVG 1.1//EN" "http://www.w3.org/Graphics/SVG/1.1/DTD/svg11.dtd">
<svg height="100%" style="fill-rule:evenodd;clip-rule:evenodd;stroke-linecap:round;stroke-linejoin:round;" xmlns:xlink="http://www.w3.org/1999/xlink" xmlns="http://www.w3.org/2000/svg" xml:space="preserve" width="100%" xmlns:vectornator="http://vectornator.io" version="1.1" viewBox="0 0 512 512">
<metadata>
<vectornator:setting key="DimensionsVisible" value="1"/>
<vectornator:setting key="PencilOnly" value="0"/>
<vectornator:setting key="SnapToPoints" value="0"/>
<vectornator:setting key="OutlineMode" value="0"/>
<vectornator:setting key="CMYKEnabledKey" value="0"/>
<vectornator:setting key="RulersVisible" value="1"/>
<vectornator:setting key="SnapToEdges" value="0"/>
<vectornator:setting key="GuidesVisible" value="1"/>
<vectornator:setting key="DisplayWhiteBackground" value="0"/>
<vectornator:setting key="doHistoryDisabled" value="0"/>
<vectornator:setting key="SnapToGuides" value="1"/>
<vectornator:setting key="TimeLapseWatermarkDisabled" value="0"/>
<vectornator:setting key="Units" value="Pixels"/>
<vectornator:setting key="DynamicGuides" value="0"/>
<vectornator:setting key="IsolateActiveLayer" value="0"/>
<vectornator:setting key="SnapToGrid" value="0"/>
</metadata>
<defs>
<linearGradient y1="223.447" id="LinearGradient" x1="165.903" y2="273.76" x2="370.992" gradientUnits="userSpaceOnUse" gradientTransform="matrix(2.82132 0 0 2.82132 -500.201 -447.857)">
<stop stop-color="#19fce8" offset="0.00485437"/>
<stop stop-color="#465bd9" offset="0.713592"/>
<stop stop-color="#ba2bd5" offset="0.987864"/>
</linearGradient>
</defs>
<g id="圖層1" vectornator:layerName="圖層1">
<path d="M218.164+204.113C214.615+205.802+214.596+212.831+214.596+212.831L214.915+294.414C214.915+297.047+216.307+306.407+221.421+306.809C226.534+307.211+232.555+307.629+235.356+307.456C241.877+307.053+241.805+295.33+241.805+295.33L241.805+214.007C241.805+211.373+242.192+205.035+237.838+203.779C237.677+203.733+221.467+202.541+218.164+204.113ZM80.4612+207.041C73.6148+207.041+67.1566+208.18+61.1528+210.392C55.1491+212.603+49.9357+215.86+45.4593+220.178C40.9827+224.497+37.4599+229.781+34.8793+236.048C32.2987+242.315+31+249.609+31+257.825C31.0001+266.673+32.3698+274.288+35.0556+280.66C37.7415+287.032+41.3538+292.281+45.9882+296.442C50.6228+300.602+56.0846+303.698+62.299+305.699C68.5134+307.701+75.1675+308.697+82.2245+308.697C92.0201+308.697+99.2973+307.202+104.09+304.2C108.882+301.199+111.024+299.128+111.829+296.437C112.566+293.971+113.669+289.355+109.8+285.12C105.932+280.886+99.9502+283.469+96.9483+284.628C93.9465+285.786+90.3342+286.391+86.0157+286.391C77.9055+286.391+71.4116+283.935+66.6191+278.985C61.8266+274.034+59.4777+266.989+59.4777+257.825C59.4776+248.767+61.5953+241.704+65.9138+236.753C70.2324+231.803+76.4947+229.347+84.605+229.347C88.713+229.347+92.2541+230.023+95.3613+231.287C98.4684+232.551+102.384+234.522+104.702+233.941C107.02+233.359+108.479+232.327+109.669+230.214C110.957+227.926+111.777+226.01+111.483+223.368C110.935+218.448+108.263+214.962+102.944+211.802C97.6244+208.642+90.1515+207.041+80.4612+207.041ZM449.084+226.526C443.923+226.526+439.155+227.131+434.889+228.289C430.623+229.448+427.011+231.032+423.957+233.139C420.902+235.245+418.5+237.914+416.815+241.074C415.13+244.233+414.346+247.756+414.346+251.653C414.346+258.816+416.571+264.296+421.047+268.141C425.524+271.985+432.338+274.814+441.502+276.604L446.263+277.574C449.212+278.101+451.258+278.759+452.522+279.602C453.786+280.445+454.462+281.566+454.462+283.041C454.462+284.621+453.555+285.884+451.817+286.832C450.079+287.78+447.588+288.331+444.323+288.331C439.162+288.331+434.607+287.619+430.657+286.303C429.011+285.754+427.444+285.174+425.956+284.562C423.875+283.707+422.004+282.641+420.202+283.115C418.399+283.589+417.428+284.388+416.374+286.126C415.321+287.865+414.787+290.035+414.787+292.563C414.787+295.301+415.552+297.703+417.08+299.704C418.607+301.705+420.742+303.325+423.428+304.641C426.113+305.958+429.334+306.919+433.126+307.551C436.918+308.183+441.045+308.521+445.469+308.521C457.161+308.521+466.003+306.261+472.007+301.732C478.01+297.203+481+290.957+481+282.952C481+276.527+478.83+271.226+474.564+267.171C470.298+263.115+463.163+259.966+453.051+257.649L448.114+256.503C445.165+255.871+443.172+255.212+442.119+254.475C441.065+253.737+440.532+252.812+440.532+251.653C440.532+249.968+441.457+248.74+443.353+247.95C445.249+247.161+447.988+246.716+451.464+246.716C453.15+246.716+454.965+246.929+457.019+247.245C459.073+247.561+461.101+247.917+463.102+248.391C465.103+248.865+466.971+249.399+468.657+249.978C470.342+250.558+471.556+250.992+473.112+250.586C474.669+250.181+477.489+247.613+478.06+242.197C478.325+239.683+476.479+236.304+475.005+234.461C473.53+232.618+471.537+231.123+469.009+229.965C466.481+228.806+463.44+227.987+460.016+227.408C456.593+226.828+452.981+226.526+449.084+226.526ZM159.899+226.702C106.677+226.64+105.163+308.194+159.899+308.344C214.931+308.495+213.124+226.765+159.899+226.702ZM296.733+226.702C243.511+226.64+241.997+308.194+296.733+308.344C351.765+308.495+349.958+226.765+296.733+226.702ZM388.69+226.791C385.635+226.791+382.575+227.11+379.521+227.584C376.466+228.058+373.548+228.681+370.704+229.524C367.86+230.366+365.244+231.327+362.769+232.433C360.294+233.539+358.195+234.767+356.509+236.136C354.824+237.506+353.525+239.071+352.63+240.809C351.735+242.547+351.308+244.646+351.308+247.069L351.308+294.414C351.308+297.047+352.003+302.926+354.7+304.935C357.59+307.086+357.362+307.172+365.505+307.093C373.416+307.017+373.347+306.738+374.992+305.513C378.309+303.044+377.873+294.689+377.873+294.689L378.08+257.288C378.08+257.288+378.003+253.958+379.372+252.276C380.742+250.595+381.187+250.629+383.136+250.155C385.084+249.681+387.095+249.253+389.307+248.832C391.519+248.411+393.867+248.073+396.184+247.862C398.501+247.652+400.952+247.53+402.319+246.653C403.685+245.776+404.139+245.052+404.56+243.63C404.981+242.208+405.177+240.785+405.177+239.31C405.177+234.886+403.63+231.737+400.681+229.788C397.732+227.84+393.746+226.791+388.69+226.791ZM159.899+247.686C164.323+247.686+167.792+249.376+170.214+252.8C172.637+256.223+173.829+261.115+173.829+267.435C173.829+273.755+172.672+278.683+170.303+282.159C167.933+285.635+164.499+287.361+160.075+287.361C155.651+287.361+152.235+285.67+149.76+282.247C147.285+278.824+146.057+273.86+146.057+267.435C146.057+261.115+147.249+256.223+149.672+252.8C152.094+249.376+155.475+247.686+159.899+247.686ZM296.733+247.686C301.157+247.686+304.626+249.376+307.048+252.8C309.471+256.223+310.663+261.115+310.663+267.435C310.663+273.755+309.506+278.683+307.136+282.159C304.767+285.635+301.333+287.361+296.909+287.361C292.485+287.361+289.069+285.67+286.594+282.247C284.118+278.824+282.891+273.86+282.891+267.435C282.891+261.115+284.083+256.223+286.505+252.8C288.928+249.376+292.309+247.686+296.733+247.686Z" opacity="1" fill="url(#LinearGradient)"/>
</g>
</svg>
